<svg width="22" height="24" viewBox="0 0 22 24" fill="none" xmlns="http://www.w3.org/2000/svg">
<path d="M0.341162 23.6236L0.345203 23.628C0.452355 23.7457 0.579786 23.8392 0.720169 23.9031C0.860553 23.9669 1.01112 23.9999 1.16321 24C1.29119 23.9999 1.41829 23.9769 1.53943 23.9319L8.13507 21.491L20.7917 7.68368C21.5654 6.83953 22 5.69464 22 4.50088C22 3.30712 21.5652 2.16227 20.7914 1.3182C20.0176 0.474117 18.9681 -5.22584e-05 17.8739 4.31981e-09C16.7796 5.2267e-05 15.7302 0.474322 14.9564 1.31847L2.29985 15.1258L0.0626242 22.3209C-0.00784823 22.5447 -0.0190969 22.7856 0.0301679 23.016C0.0794328 23.2464 0.187217 23.4569 0.341162 23.6236ZM16.0075 2.46496C16.5032 1.92834 17.1736 1.62786 17.8719 1.62933C18.5702 1.63079 19.2396 1.93408 19.7333 2.47277C20.2271 3.01147 20.5051 3.74167 20.5064 4.50349C20.5078 5.26531 20.2323 5.99666 19.7404 6.53739L18.076 8.35307L14.343 4.28064L16.0075 2.46496ZM3.59616 16.0047L13.2921 5.42713L17.0251 9.49956L7.32914 20.077L1.6797 22.1678L3.59616 16.0047Z" fill="black"/>
</svg>
